<?xml version="1.0" encoding="UTF-8"?>
<svg width="300px" height="73px" viewBox="0 0 300 73" version="1.1" xmlns="http://www.w3.org/2000/svg" xmlns:xlink="http://www.w3.org/1999/xlink">
    <!-- Generator: Sketch 52.6 (67491) - http://www.bohemiancoding.com/sketch -->
    <title>Artboard</title>
    <desc>Created with Sketch.</desc>
    <defs>
        <polygon id="path-1" points="0.410000612 0.414981169 33.1717743 0.414981169 33.1717743 58.0909091 0.410000612 58.0909091"></polygon>
    </defs>
    <g id="Artboard" stroke="none" stroke-width="1" fill="none" fill-rule="evenodd">
        <g id="livemint-logo" transform="translate(1.000000, 1.000000)">
            <path d="M121.478287,69.8933221 L93.6376147,69.8933221 L93.6376147,60.4885883 L96.4171254,60.4885883 C97.6474006,60.4885883 98.0574924,59.7970299 98.0574924,58.6444325 L98.0574924,35.0848805 C98.0574924,33.9322831 97.6018349,33.2407247 96.4171254,33.2407247 L93.6376147,33.2407247 L93.6376147,23.5589065 L118.334251,23.5589065 L118.334251,30.5666987 C121.296024,25.0803351 126.034862,22.5907247 132.687462,22.5907247 C141.70948,22.5907247 144.944648,26.0485169 145.992661,31.4431338 C148.772171,25.3108545 153.693272,22.5907247 160.710398,22.5907247 C172.192966,22.5907247 174.380122,28.1692961 174.380122,36.4218935 L174.380122,58.6444325 C174.380122,59.7970299 174.926911,60.4885883 176.293884,60.4885883 L178.663303,60.4885883 L178.663303,69.8933221 L151.278287,69.8933221 L151.278287,60.4885883 L152.417431,60.4885883 C153.556575,60.4885883 154.057798,59.7970299 154.057798,58.6444325 L154.057798,38.5426727 C154.057798,34.7160494 153.192049,33.5178091 150.549235,33.5178091 C147.040673,33.5178091 146.357187,36.4218935 146.357187,40.9400753 L146.357187,58.5517636 C146.357187,59.7970299 146.903976,60.4885883 147.997554,60.4885883 L149.501223,60.4885883 L149.501223,69.8933221 L123.255352,69.8933221 L123.255352,60.4885883 L124.394495,60.4885883 C125.533639,60.4885883 126.034862,59.7970299 126.034862,58.6444325 L126.034862,38.5426727 C126.034862,34.7160494 125.169113,33.5178091 122.5263,33.5178091 C119.017737,33.5178091 118.334251,36.4218935 118.334251,40.9400753 L118.334251,58.5517636 C118.334251,59.7970299 118.789908,60.4885883 119.974618,60.4885883 L121.478287,60.4885883 L121.478287,69.8933221 Z" id="Fill-1" fill="#F7941D"></path>
            <path d="M194.611315,0.276669481 C200.215902,0.276669481 204.772477,4.88705909 204.772477,10.5578383 C204.772477,16.1364097 200.215902,20.7467994 194.611315,20.7467994 C189.097859,20.7467994 184.541284,16.1364097 184.541284,10.5578383 C184.541284,4.88705909 189.097859,0.276669481 194.611315,0.276669481 Z M184.632416,35.085111 C184.632416,33.9325136 184.176758,33.2409552 182.992049,33.2409552 L180.212538,33.2409552 L180.212538,23.559137 L204.909174,23.559137 L204.909174,58.5519942 C204.909174,59.7967994 205.364832,60.4883578 206.549541,60.4883578 L209.192355,60.4883578 L209.192355,69.8935526 L180.212538,69.8935526 L180.212538,60.4883578 L182.992049,60.4883578 C184.222324,60.4883578 184.632416,59.7967994 184.632416,58.6442019 L184.632416,35.085111 Z" id="Fill-3" fill="#F7941D"></path>
            <path d="M238.53688,69.8933221 L210.695751,69.8933221 L210.695751,60.4885883 L213.475717,60.4885883 C214.705537,60.4885883 215.116084,59.7970299 215.116084,58.6444325 L215.116084,35.0848805 C215.116084,33.9322831 214.660427,33.2407247 213.475717,33.2407247 L210.695751,33.2407247 L210.695751,23.5589065 L235.392843,23.5589065 L235.392843,30.6589065 C238.171898,25.0803351 242.819604,22.5907247 250.42954,22.5907247 C261.000794,22.5907247 263.734739,28.1692961 263.734739,36.4218935 L263.734739,58.6444325 C263.734739,59.7970299 264.190396,60.4885883 265.557369,60.4885883 L268.017464,60.4885883 L268.017464,69.8933221 L240.268378,69.8933221 L240.268378,60.4885883 L241.772048,60.4885883 C242.911191,60.4885883 243.411959,59.7970299 243.411959,58.6444325 L243.411959,38.5426727 C243.411959,34.7160494 242.455534,33.5178091 239.903852,33.5178091 C236.395289,33.5178091 235.347277,36.4218935 235.347277,40.9400753 L235.347277,58.5517636 C235.347277,59.7970299 235.802935,60.4885883 236.987644,60.4885883 L238.490858,60.4885883 L238.490858,69.8933221 L238.53688,69.8933221 Z" id="Fill-5" fill="#F7941D"></path>
            <g id="Group-9" transform="translate(264.737003, 12.309740)">
                <mask id="mask-2" fill="white">
                    <use xlink:href="#path-1"></use>
                </mask>
                <g id="Clip-8"></g>
                <path d="M0.410000612,11.2493968 L5.33110153,10.9727734 L6.10571927,0.414981169 L24.8336979,0.414981169 L24.8336979,11.2032929 L32.7161168,11.2032929 L32.7161168,20.7467994 L24.8336979,20.7467994 L24.8336979,40.8480981 C24.8336979,46.3344617 25.8812544,48.0864097 31.8503676,48.0864097 L33.1717743,48.0864097 L33.1717743,57.4916045 C29.2531199,57.9526435 25.1066367,58.0909552 21.1884379,58.0909552 C10.3433339,58.0909552 5.42223303,54.8175786 4.64761529,45.5045916 L4.64761529,20.8390071 L0.456022018,20.8390071 L0.456022018,11.2493968 L0.410000612,11.2493968 Z" id="Fill-7" fill="#F7941D" mask="url(#mask-2)"></path>
            </g>
            <path d="M11.2547856,61.8715208 C11.2547856,63.6234688 11.2547856,64.9143779 11.3914829,65.9286636 C11.7104431,67.1734688 12.3939294,67.7728195 13.1229813,68.1877545 C13.7153361,68.4643779 14.3532566,68.6026896 14.9456113,68.6487935 L14.9456113,69.2481442 L4.55657492e-05,69.2481442 L4.55657492e-05,68.6487935 C0.592400306,68.6026896 1.32145229,68.4643779 1.73154404,68.1877545 C2.59729327,67.7728195 3.23521376,67.1734688 3.41747676,66.204826 C3.69087125,65.0065857 3.69087125,63.7617805 3.69087125,61.8715208 L3.69087125,30.9819104 C3.69087125,29.9676247 3.69087125,27.7085338 3.55417401,26.8325597 C3.28077951,25.9104818 2.96181927,25.3111312 2.41503028,24.8961961 C1.77710979,24.4351571 1.2303208,24.3429494 0.182308563,24.2968455 L0.182308563,23.7435987 L10.8446939,23.7435987 C11.1636541,23.7435987 11.3003514,23.7897026 11.3003514,24.2968455 C11.3003514,25.6338584 11.2547856,27.2474948 11.2547856,29.6910013 L11.2547856,61.8715208 Z" id="Fill-10" fill="#000000"></path>
            <path d="M20.686759,30.2442019 C20.686759,27.8006955 22.4182575,25.9104357 25.0155052,25.9104357 C27.6127529,25.9104357 29.3442514,27.8467994 29.3442514,30.2442019 C29.3442514,32.6416045 27.6127529,34.5779682 25.0155052,34.5779682 C22.4182575,34.5779682 20.686759,32.6416045 20.686759,30.2442019 Z M28.8885939,62.1480981 C28.8885939,63.8078383 28.9341596,65.0065396 29.1619884,65.9286175 C29.4809486,67.2656305 30.0733034,67.7727734 30.8934869,68.1877084 C31.3491443,68.4643318 32.0326306,68.6026435 32.6705511,68.6487474 L32.6705511,69.2480981 L17.7249853,69.2480981 L17.7249853,68.6487474 C18.3173401,68.6026435 19.046392,68.4643318 19.5020495,68.1877084 C20.2766673,67.7727734 20.9601535,67.1273188 21.1424165,66.2513448 C21.415811,65.1909552 21.4613768,63.9000461 21.4613768,62.1019942 L21.4613768,46.6110851 C21.4613768,45.5506955 21.4613768,43.1993968 21.3246795,42.3695266 C21.1424165,41.4935526 20.7323248,40.8480981 20.13997,40.5253708 C19.593181,40.1104357 19.0008263,39.9260201 17.8161168,39.9260201 L17.8161168,39.3266695 L28.5240679,39.3266695 C28.8430281,39.3266695 28.9797254,39.3727734 28.9797254,39.7877084 C28.9341596,41.1708253 28.8430281,42.64615 28.8430281,45.1818643 L28.8430281,62.1480981 L28.8885939,62.1480981 Z" id="Fill-12" fill="#000000"></path>
            <path d="M61.4681046,40.4332091 C60.8757498,40.8476831 60.3289609,41.2169753 59.9644349,42.0929494 C59.4176459,42.8767156 58.6430281,44.6286636 57.8684104,46.8877545 L49.8944043,69.4320987 L46.3402758,69.4320987 L38.9130587,48.3169753 C38.138441,46.1961961 37.3182575,43.9832091 36.9537315,43.1072351 C36.3613768,41.769761 35.9057193,41.0325597 35.1766673,40.5254169 C34.5387468,40.0643779 33.8096948,39.9256052 33.0806428,39.7877545 L33.0806428,39.2340468 L48.7552606,39.2340468 L48.7552606,39.7877545 C47.8439456,39.8338584 46.9781963,40.0643779 46.3858416,40.3410013 C45.8390526,40.6637286 45.5200924,41.4935987 45.5200924,42.3234688 C45.5200924,43.3833974 45.9301841,44.7208714 46.6592361,46.9799623 L51.2613768,61.6410013 L51.398074,61.6410013 L56.4558722,47.2565857 C57.3216214,44.8591831 57.5950159,43.5221701 57.5950159,42.5539883 C57.5950159,41.3087221 57.0482269,40.7098325 56.4558722,40.3410013 C55.8635174,40.018274 55.2255969,39.8799623 54.5421107,39.7877545 L54.5421107,39.2340468 L63.2451688,39.2340468 L63.2451688,39.7877545 C62.6983798,39.9256052 62.0604593,40.1104818 61.4681046,40.4332091" id="Fill-14" fill="#000000"></path>
            <path d="M71.1281346,51.4517636 L81.0614679,51.4517636 C82.7474006,51.4517636 83.2486239,50.9907247 83.2486239,48.5937831 C83.2486239,44.9511143 82.6562691,42.5537117 81.5171254,41.2171597 C80.6058104,40.2950818 79.5577982,39.8340429 77.8262997,39.8340429 C76.32263,39.8340429 75.0012232,40.3868286 73.953211,41.4933221 C72.495107,42.9225429 71.4470948,46.7952701 71.1281346,51.4517636 M78.0085627,69.8933221 C73.5431193,69.8933221 70.0345566,68.5102052 67.4828746,66.0210558 C64.3844037,63.0243026 63.0629969,58.9205948 63.0629969,54.4485169 C63.0629969,45.0437831 69.7155963,38.6814455 77.7351682,38.6814455 C86.483792,38.6814455 90.311315,44.8132636 90.311315,50.1152117 C90.311315,50.852413 90.311315,51.9128026 90.1746177,52.650926 L71.0370031,52.650926 L71.0370031,54.0340429 C71.0370031,59.704361 72.0394495,63.6231922 73.6798165,65.4673481 C75.1379205,67.0809844 77.1428135,67.8652117 79.5122324,67.8652117 C85.2990826,67.8652117 88.124159,63.8080688 89.3088685,59.5665104 L90.4480122,59.8892377 C88.8076453,65.6056597 84.9345566,69.8933221 78.0085627,69.8933221" id="Fill-16" fill="#000000"></path>
        </g>
    </g>
</svg>