<?xml version="1.0" encoding="UTF-8"?>
<svg xmlns="http://www.w3.org/2000/svg" xmlns:xlink="http://www.w3.org/1999/xlink" width="201pt" height="145pt" viewBox="0 0 201 45" version="1.1">
<g id="surface1">
<path style=" stroke:none;fill-rule:nonzero;fill:rgb(83.529412%,16.862745%,11.764706%);fill-opacity:1;" d="M 196.703125 0.0078125 L 185.734375 23.601562 L 181.605469 14.660156 L 177.144531 14.660156 L 183.929688 29.285156 L 187.535156 29.285156 L 201.132812 0.0078125 Z M 196.703125 0.0078125 "/>
<path style=" stroke:none;fill-rule:nonzero;fill:rgb(0%,0%,0%);fill-opacity:1;" d="M 149.644531 43.816406 L 158.476562 43.816406 L 158.476562 27.5625 C 158.476562 23.84375 160.613281 21.234375 163.792969 21.234375 C 166.847656 21.234375 168.433594 23.386719 168.433594 26.488281 L 168.433594 43.816406 L 177.269531 43.816406 L 177.269531 24.796875 C 177.269531 18.347656 173.417969 13.800781 167.183594 13.800781 C 163.210938 13.800781 160.429688 15.523438 158.351562 18.652344 L 158.167969 18.652344 L 158.167969 14.660156 L 149.613281 14.660156 Z M 132.285156 13.859375 C 123.054688 13.859375 116.886719 20.527344 116.886719 29.316406 C 116.886719 38.039062 123.054688 44.765625 132.285156 44.765625 C 141.511719 44.765625 147.6875 38.039062 147.6875 29.316406 C 147.71875 20.527344 141.511719 13.859375 132.285156 13.859375 Z M 132.226562 38.191406 C 128.039062 38.191406 125.808594 34.660156 125.808594 29.316406 C 125.808594 23.910156 128.007812 20.4375 132.226562 20.4375 C 136.410156 20.4375 138.734375 23.910156 138.734375 29.316406 C 138.765625 34.660156 136.441406 38.191406 132.226562 38.191406 Z M 91.707031 43.816406 L 116.519531 43.816406 L 116.519531 36.808594 L 102.460938 36.808594 L 102.460938 36.625 L 115.90625 21.480469 L 115.90625 14.628906 L 91.707031 14.628906 L 91.707031 21.664062 L 105.304688 21.664062 L 105.304688 21.851562 L 91.707031 37.117188 Z M 80.367188 43.816406 L 89.257812 43.816406 L 89.257812 14.660156 L 80.367188 14.660156 Z M 59.742188 43.816406 L 68.601562 43.816406 L 68.601562 30.421875 C 68.601562 24.335938 72.242188 21.636719 77.773438 22.402344 L 77.953125 22.402344 L 77.953125 14.722656 C 77.496094 14.539062 76.976562 14.507812 76.152344 14.507812 C 72.699219 14.507812 70.375 16.105469 68.386719 19.515625 L 68.207031 19.515625 L 68.207031 14.660156 L 59.742188 14.660156 Z M 43.484375 38.222656 C 39.574219 38.222656 37.191406 35.675781 36.730469 31.742188 L 57.632812 31.742188 C 57.695312 25.476562 56.042969 20.464844 52.589844 17.332031 C 50.144531 15.058594 46.9375 13.800781 42.839844 13.800781 C 34.101562 13.800781 28.050781 20.464844 28.050781 29.191406 C 28.050781 37.980469 33.828125 44.675781 43.421875 44.675781 C 47.058594 44.675781 49.929688 43.691406 52.316406 42.066406 C 54.851562 40.3125 56.6875 37.734375 57.175781 35.183594 L 48.679688 35.183594 C 47.851562 37.085938 46.082031 38.222656 43.484375 38.222656 Z M 43.027344 20.160156 C 46.144531 20.160156 48.28125 22.492188 48.648438 25.902344 L 36.792969 25.902344 C 37.496094 22.464844 39.359375 20.160156 43.027344 20.160156 Z M 10.390625 43.816406 L 19.679688 43.816406 L 29.765625 14.660156 L 20.871094 14.660156 L 15.21875 33.402344 L 15.09375 33.402344 L 9.441406 14.660156 L 0.304688 14.660156 Z M 80.367188 4.277344 L 89.257812 4.277344 L 89.257812 12.203125 L 80.367188 12.203125 Z M 80.367188 4.277344 "/>
</g>
</svg>
